<?xml version="1.0" encoding="utf-8"?>
<svg version="1.0" width="300pt" height="300pt" viewBox="0 0 300 300" preserveAspectRatio="xMidYMid meet" xmlns="http://www.w3.org/2000/svg">
  <g transform="matrix(0.14503, 0, 0, -0.153783, -285.922699, 707.524719)" fill="#000000" stroke="none" style="">
    <path d="M1970 3625 l0 -975 1035 0 1035 0 0 975 0 975 -1035 0 -1035 0 0 -975z m2010 -5 l0 -910 -970 0 -970 0 0 910 0 910 970 0 970 0 0 -910z" style="fill: rgb(176, 151, 204);"/>
    <path d="M2740 4319 c-40 -21 -77 -42 -81 -46 -4 -4 24 -8 62 -7 66 1 72 3 105 35 l35 35 -24 11 c-20 9 -35 5 -97 -28z" style="fill: rgb(176, 151, 204);"/>
    <path d="M3187 4349 c-16 -10 -15 -13 14 -47 31 -35 35 -37 101 -37 37 0 68 1 68 2 0 4 -154 93 -160 93 -3 0 -13 -5 -23 -11z" style="fill: rgb(176, 151, 204);"/>
    <path d="M2856 4293 c-20 -20 -36 -40 -36 -43 0 -21 30 -25 97 -16 l71 11 -13 31 c-14 35 -19 39 -56 47 -21 5 -33 0 -63 -30z" style="fill: rgb(176, 151, 204);"/>
    <path d="M3097 4323 c-25 -4 -57 -44 -57 -71 0 -16 136 -30 155 -16 15 11 13 16 -20 53 -21 23 -40 40 -44 40 -3 -1 -18 -4 -34 -6z" style="fill: rgb(176, 151, 204);"/>
    <path d="M2996 4295 c9 -14 18 -24 19 -23 1 2 8 13 14 26 11 20 10 22 -19 22 -30 0 -30 0 -14 -25z" style="fill: rgb(176, 151, 204);"/>
    <path d="M2564 4202 c-94 -75 -192 -189 -234 -276 -54 -111 -63 -163 -12 -69 69 127 148 215 252 279 56 34 59 38 53 68 -3 17 -7 32 -8 34 -1 1 -24 -15 -51 -36z" style="fill: rgb(176, 151, 204);"/>
    <path d="M2680 4221 c0 -10 5 -32 10 -48 9 -24 15 -29 34 -26 16 4 25 13 29 31 2 15 8 35 12 45 6 15 1 17 -39 17 -38 0 -46 -3 -46 -19z" style="fill: rgb(176, 151, 204);"/>
    <path d="M3268 4196 c27 -75 55 -68 76 17 6 27 6 27 -43 27 l-49 0 16 -44z" style="fill: rgb(176, 151, 204);"/>
    <path d="M3400 4201 c0 -31 5 -41 20 -46 40 -13 141 -96 195 -162 31 -37 74 -103 96 -147 44 -89 50 -87 16 7 -30 82 -65 142 -127 217 -45 53 -177 170 -194 170 -3 0 -6 -18 -6 -39z" style="fill: rgb(176, 151, 204);"/>
    <path d="M2790 4218 c0 -2 -4 -18 -9 -36 -8 -27 -7 -34 7 -39 9 -3 30 -18 46 -32 l29 -26 -6 40 c-7 40 -33 85 -55 93 -7 2 -12 2 -12 0z" style="fill: rgb(176, 151, 204);"/>
    <path d="M2978 4193 c-35 -37 -50 -77 -35 -92 17 -17 136 -14 143 3 11 29 -46 116 -76 116 -4 0 -18 -12 -32 -27z" style="fill: rgb(176, 151, 204);"/>
    <path d="M3192 4188 c-20 -33 -39 -98 -28 -98 3 0 16 11 30 25 14 14 32 25 41 25 17 0 19 18 5 54 -13 34 -24 33 -48 -6z" style="fill: rgb(176, 151, 204);"/>
    <path d="M2879 4203 c-14 -3 -15 -8 -1 -49 8 -25 16 -43 18 -41 2 2 15 25 28 50 l23 47 -26 -1 c-14 -1 -33 -3 -42 -6z" style="fill: rgb(176, 151, 204);"/>
    <path d="M3094 4175 c14 -21 26 -44 26 -51 0 -8 5 -14 10 -14 6 0 10 9 10 21 0 11 5 29 11 41 14 25 10 28 -41 35 l-41 6 25 -38z" style="fill: rgb(176, 151, 204);"/>
    <path d="M3350 4147 c-7 -18 -15 -35 -18 -39 -2 -5 1 -8 6 -8 11 0 37 68 30 75 -2 2 -10 -10 -18 -28z" style="fill: rgb(176, 151, 204);"/>
    <path d="M2665 4135 c8 -34 10 -38 23 -34 5 2 0 18 -10 34 l-20 30 7 -30z" style="fill: rgb(176, 151, 204);"/>
    <path d="M2571 4104 c-111 -73 -201 -187 -259 -327 -45 -107 -49 -143 -7 -57 69 141 174 263 293 340 41 26 48 35 44 56 -2 13 -7 24 -11 23 -3 0 -30 -16 -60 -35z" style="fill: rgb(176, 151, 204);"/>
    <path d="M3386 4124 c-10 -27 -8 -30 55 -74 121 -85 223 -209 289 -353 36 -76 37 -71 6 19 -59 176 -176 330 -304 402 -35 19 -41 20 -46 6z" style="fill: rgb(176, 151, 204);"/>
    <path d="M2736 4093 c8 -36 32 -60 67 -68 25 -7 27 -5 27 23 0 36 -39 72 -77 72 -20 0 -23 -3 -17 -27z" style="fill: rgb(176, 151, 204);"/>
    <path d="M3223 4105 c-20 -14 -41 -71 -30 -82 3 -3 21 0 40 6 33 11 57 44 57 76 0 20 -39 19 -67 0z" style="fill: rgb(176, 151, 204);"/>
    <path d="M2690 4066 c0 -17 39 -66 40 -49 0 18 -22 63 -32 63 -4 0 -8 -6 -8 -14z" style="fill: rgb(176, 151, 204);"/>
    <path d="M2877 4073 c-14 -4 -17 -13 -15 -36 2 -27 11 -36 53 -59 91 -49 95 -50 173 -12 61 29 70 38 74 65 4 26 1 32 -21 40 -17 7 -33 7 -49 0 -29 -14 -149 -14 -157 -1 -6 10 -26 11 -58 3z" style="fill: rgb(176, 151, 204);"/>
    <path d="M3305 4049 c-9 -42 0 -47 19 -11 14 28 13 42 -5 42 -4 0 -10 -14 -14 -31z" style="fill: rgb(176, 151, 204);"/>
    <path d="M2623 4040 c-19 -11 -36 -31 -40 -47 -9 -36 -9 -90 0 -99 10 -10 92 24 113 47 17 19 17 21 -6 62 -32 59 -32 59 -67 37z" style="fill: rgb(176, 151, 204);"/>
    <path d="M3360 4051 c0 -4 -11 -25 -25 -45 -19 -28 -23 -41 -15 -55 10 -20 57 -45 104 -57 l29 -7 -5 58 c-4 52 -9 62 -39 87 -34 29 -49 35 -49 19z" style="fill: rgb(176, 151, 204);"/>
    <path d="M2750 3991 c0 -18 62 -82 78 -80 4 0 17 13 29 28 l23 29 -33 15 c-17 8 -47 17 -64 20 -28 6 -33 3 -33 -12z" style="fill: rgb(176, 151, 204);"/>
    <path d="M3226 4003 c-16 -3 -39 -11 -52 -19 l-23 -15 21 -34 20 -35 44 37 c24 21 44 38 44 39 0 10 -14 34 -19 33 -3 -1 -19 -4 -35 -6z" style="fill: rgb(176, 151, 204);"/>
    <path d="M2484 3929 c-96 -101 -147 -185 -189 -310 l-23 -67 29 -87 c43 -128 112 -240 230 -372 61 -69 196 -193 210 -193 18 0 -67 137 -108 176 -24 22 -43 48 -43 57 0 9 -9 26 -20 37 -11 11 -26 40 -32 65 -7 25 -16 45 -21 45 -14 0 -37 68 -37 113 0 24 -5 48 -12 55 -19 19 -21 245 -3 289 8 19 15 48 15 64 0 39 17 79 46 110 18 18 25 35 22 54 -3 26 -5 25 -64 -36z" style="fill: rgb(176, 151, 204);"/>
    <path d="M3475 3960 c4 -19 14 -39 21 -43 23 -13 44 -64 44 -105 0 -21 7 -53 15 -69 19 -38 18 -289 -1 -301 -6 -4 -13 -36 -16 -71 -4 -50 -9 -68 -26 -82 -12 -9 -22 -26 -22 -38 0 -23 -30 -91 -41 -91 -4 0 -10 -11 -13 -24 -3 -13 -24 -40 -45 -59 -22 -20 -50 -56 -62 -79 -12 -24 -33 -58 -46 -76 l-25 -34 33 17 c48 25 235 216 298 305 66 92 136 233 152 304 11 49 9 56 -21 131 -54 137 -140 264 -219 324 l-34 26 8 -35z" style="fill: rgb(176, 151, 204);"/>
    <path d="M2881 3926 c-25 -27 -26 -43 -6 -66 15 -16 18 -15 52 19 20 20 36 38 35 40 0 2 -14 10 -30 17 -27 11 -32 10 -51 -10z" style="fill: rgb(176, 151, 204);"/>
    <path d="M3085 3933 l-31 -15 40 -40 40 -40 18 22 c18 22 18 24 1 53 -22 37 -30 40 -68 20z" style="fill: rgb(176, 151, 204);"/>
    <path d="M2703 3912 c-23 -20 -33 -38 -35 -62 l-3 -35 85 -30 c83 -29 90 -30 270 -29 175 0 189 1 267 27 l82 28 -6 32 c-3 18 -21 47 -39 66 -34 33 -34 33 -61 16 -15 -10 -55 -46 -89 -81 -34 -35 -73 -66 -88 -70 -14 -3 -57 -4 -95 -2 l-69 4 -86 82 c-48 45 -90 82 -94 82 -4 -1 -21 -13 -39 -28z" style="fill: rgb(176, 151, 204);"/>
    <path d="M2957 3869 c-63 -52 -48 -69 61 -69 97 0 105 9 55 59 -22 23 -49 41 -60 41 -10 0 -35 -14 -56 -31z" style="fill: rgb(176, 151, 204);"/>
    <path d="M2530 3875 c-7 -8 -15 -39 -18 -66 -5 -49 -4 -51 17 -45 11 3 30 8 41 12 24 6 70 60 70 81 0 13 -8 14 -39 9 -31 -5 -42 -2 -49 10 -8 14 -10 14 -22 -1z" style="fill: rgb(176, 151, 204);"/>
    <path d="M3467 3876 c-4 -11 -15 -13 -41 -9 -32 5 -36 3 -36 -16 0 -11 4 -21 9 -21 5 0 11 -9 14 -20 5 -18 19 -27 74 -44 30 -9 39 25 21 78 -14 42 -32 56 -41 32z" style="fill: rgb(176, 151, 204);"/>
    <path d="M2638 3742 l-3 -55 50 -22 c66 -29 134 -45 223 -54 65 -6 72 -5 72 11 0 19 28 38 48 31 6 -3 12 -15 12 -29 0 -23 2 -24 63 -18 81 8 219 40 258 60 27 14 30 19 25 46 -3 17 -6 41 -6 54 l0 23 -43 -19 c-149 -66 -468 -65 -634 2 l-61 25 -4 -55z" style="fill: rgb(176, 151, 204);"/>
    <path d="M2580 3750 c-8 -5 -27 -10 -42 -10 -39 0 -58 -25 -58 -76 0 -43 1 -44 28 -38 63 15 94 45 107 102 7 34 -5 42 -35 22z" style="fill: rgb(176, 151, 204);"/>
    <path d="M3410 3737 c0 -13 7 -30 15 -37 8 -7 13 -16 10 -20 -13 -20 90 -69 108 -51 5 5 7 29 3 53 -6 42 -8 44 -54 55 -26 6 -55 14 -64 18 -14 6 -18 2 -18 -18z" style="fill: rgb(176, 151, 204);"/>
    <path d="M2626 3622 c9 -71 8 -71 96 -111 113 -52 175 -66 298 -65 117 1 197 18 301 66 l67 30 5 51 c3 29 4 53 3 54 -1 1 -31 -9 -67 -22 -98 -35 -212 -48 -368 -42 -141 5 -238 27 -308 67 l-32 19 5 -47z" style="fill: rgb(176, 151, 204);"/>
    <path d="M2565 3618 c-16 -10 -38 -18 -47 -18 -22 0 -38 -30 -38 -72 0 -55 12 -65 54 -46 49 24 68 57 64 110 l-3 45 -30 -19z" style="fill: rgb(176, 151, 204);"/>
    <path d="M3420 3600 c0 -16 5 -30 10 -30 6 0 9 -12 8 -27 -2 -21 4 -32 31 -50 48 -32 68 -30 73 9 7 46 -9 98 -30 98 -9 0 -30 7 -46 15 -40 21 -46 19 -46 -15z" style="fill: rgb(176, 151, 204);"/>
    <path d="M2636 3498 c4 -13 10 -41 13 -63 6 -37 11 -42 69 -73 98 -52 182 -73 297 -73 115 0 188 16 292 65 59 28 71 38 66 54 -2 11 0 37 6 58 6 21 9 39 7 41 -1 2 -27 -9 -56 -23 -64 -31 -172 -59 -261 -69 -112 -12 -298 28 -389 84 -44 27 -53 26 -44 -1z" style="fill: rgb(176, 151, 204);"/>
    <path d="M2586 3481 c-10 -11 -28 -23 -40 -27 -11 -4 -24 -12 -28 -18 -10 -15 -10 -88 1 -105 12 -19 45 -6 76 30 25 31 32 82 16 122 -6 17 -8 17 -25 -2z" style="fill: rgb(176, 151, 204);"/>
    <path d="M3404 3454 c-4 -25 -3 -39 6 -44 7 -4 9 -13 6 -19 -9 -13 49 -71 70 -71 20 0 36 49 29 87 -4 25 -16 37 -52 57 -25 14 -47 26 -49 26 -2 0 -6 -16 -10 -36z" style="fill: rgb(176, 151, 204);"/>
    <path d="M2666 3343 c4 -10 9 -37 12 -61 5 -53 31 -75 121 -102 135 -42 303 -42 441 -1 83 25 106 50 112 119 4 41 2 50 -7 42 -7 -6 -50 -24 -96 -41 -163 -60 -358 -50 -519 27 -57 27 -71 31 -64 17z" style="fill: rgb(176, 151, 204);"/>
    <path d="M2593 3319 c-36 -33 -42 -67 -19 -107 l13 -24 31 32 c35 34 43 82 20 113 -12 16 -16 14 -45 -14z" style="fill: rgb(176, 151, 204);"/>
    <path d="M3380 3316 c-12 -37 -6 -61 23 -93 36 -40 57 -25 57 42 0 25 -7 38 -34 59 l-34 26 -12 -34z" style="fill: rgb(176, 151, 204);"/>
    <path d="M2636 3195 c-22 -18 -27 -27 -21 -46 9 -30 44 -69 61 -69 19 0 33 60 22 92 -15 43 -30 49 -62 23z" style="fill: rgb(176, 151, 204);"/>
    <path d="M3333 3186 c-17 -38 -9 -96 14 -103 18 -6 63 46 63 72 0 20 -37 65 -53 65 -4 0 -15 -16 -24 -34z" style="fill: rgb(176, 151, 204);"/>
    <path d="M2730 3136 c0 -20 -1 -39 -1 -43 -1 -5 32 -19 72 -32 63 -21 94 -25 214 -25 120 -1 151 2 216 22 l76 24 -11 40 c-9 33 -14 38 -31 33 -169 -48 -342 -45 -512 9 -21 7 -23 4 -23 -28z" style="fill: rgb(176, 151, 204);"/>
    <path d="M2700 3055 c0 -2 5 -16 12 -30 13 -28 86 -55 205 -76 137 -24 368 16 392 68 18 40 13 42 -43 22 -138 -48 -330 -50 -471 -5 -82 26 -95 29 -95 21z" style="fill: rgb(176, 151, 204);"/>
    <path d="M2755 2949 c33 -57 62 -68 125 -45 l34 13 -65 16 c-36 9 -74 20 -84 23 -14 6 -16 4 -10 -7z" style="fill: rgb(176, 151, 204);"/>
    <path d="M3180 2932 l-65 -15 48 -16 48 -15 32 32 c35 36 32 37 -63 14z" style="fill: rgb(176, 151, 204);"/>
  </g>
</svg>