<?xml version="1.0" encoding="utf-8"?>
<svg version="1.0" width="1000pt" height="300pt" viewBox="0 0 1000 300" preserveAspectRatio="xMidYMid meet" xmlns="http://www.w3.org/2000/svg">
  <g transform="matrix(0.14454, 0, 0, -0.153783, -284.956635, 707.525146)" fill="#000000" stroke="none" style="">
    <path d="M 1970 3625.001 L 1970 2650.001 L 3008.512 2650.001 L 4047.023 2650.001 L 4047.023 3625.001 L 4047.023 4600 L 3008.512 4600 L 1970 4600 L 1970 3625.001 Z M 3986.82 3620.001 L 3986.82 2710.001 L 3013.529 2710.001 L 2040.238 2710.001 L 2040.238 3620.001 L 2040.238 4530 L 3013.529 4530 L 3986.82 4530 L 3986.82 3620.001 Z" style="fill: rgb(176, 151, 204);"/>
    <path d="M 2742.612 4319 C 2702.477 4298 2665.351 4277 2661.338 4273 C 2657.324 4269 2685.419 4265 2723.548 4266 C 2789.772 4267 2795.792 4269 2828.904 4301 L 2864.023 4336 L 2839.942 4347 C 2819.874 4356 2804.823 4352 2742.612 4319 Z" style="fill: rgb(176, 151, 204);"/>
    <path d="M 3191.129 4349 C 3175.075 4339 3176.078 4336 3205.177 4302 C 3236.282 4267 3240.295 4265 3306.519 4265 C 3343.645 4265 3374.75 4266 3374.75 4267 C 3374.75 4271 3220.227 4360 3214.207 4360 C 3211.197 4360 3201.163 4355 3191.129 4349 Z" style="fill: rgb(176, 151, 204);"/>
    <path d="M 2859.006 4293 C 2838.938 4273 2822.884 4253 2822.884 4250 C 2822.884 4229 2852.986 4225 2920.213 4234 L 2991.454 4245 L 2978.41 4276 C 2964.362 4311 2959.345 4315 2922.22 4323 C 2901.149 4328 2889.108 4323 2859.006 4293 Z" style="fill: rgb(176, 151, 204);"/>
    <path d="M 3100.824 4323 C 3075.739 4319 3043.63 4279 3043.63 4252 C 3043.63 4236 3180.092 4222 3199.156 4236 C 3214.207 4247 3212.2 4252 3179.088 4289 C 3158.017 4312 3138.953 4329 3134.939 4329 C 3131.929 4328 3116.878 4325 3100.824 4323 Z" style="fill: rgb(176, 151, 204);"/>
    <path d="M 2999.481 4295 C 3008.512 4281 3017.542 4271 3018.545 4272 C 3019.549 4274 3026.573 4285 3032.593 4298 C 3043.63 4318 3042.627 4320 3013.529 4320 C 2983.427 4320 2983.427 4320 2999.481 4295 Z" style="fill: rgb(176, 151, 204);"/>
    <path d="M2564 4202 c-94 -75 -192 -189 -234 -276 -54 -111 -63 -163 -12 -69 69 127 148 215 252 279 56 34 59 38 53 68 -3 17 -7 32 -8 34 -1 1 -24 -15 -51 -36z" style="fill: rgb(176, 151, 204);"/>
    <path d="M 2682.409 4221 C 2682.409 4211 2687.426 4189 2692.443 4173 C 2701.473 4149 2707.494 4144 2726.558 4147 C 2742.612 4151 2751.643 4160 2755.657 4178 C 2757.663 4193 2763.684 4213 2767.697 4223 C 2773.718 4238 2768.701 4240 2728.565 4240 C 2690.436 4240 2682.409 4237 2682.409 4221 Z" style="fill: rgb(176, 151, 204);"/>
    <path d="M 3272.404 4196 C 3299.495 4121 3327.59 4128 3348.662 4213 C 3354.682 4240 3354.682 4240 3305.516 4240 L 3256.35 4240 L 3272.404 4196 Z" style="fill: rgb(176, 151, 204);"/>
    <path d="M 3404.852 4201 C 3404.852 4170 3409.869 4160 3424.92 4155 C 3465.055 4142 3566.398 4059 3620.581 3993 C 3651.686 3956 3694.832 3890 3716.907 3846.001 C 3761.056 3757.001 3767.077 3759.001 3732.961 3853.001 C 3702.859 3935 3667.741 3995 3605.53 4070 C 3560.378 4123 3427.93 4240 3410.872 4240 C 3407.862 4240 3404.852 4222 3404.852 4201 Z" style="fill: rgb(176, 151, 204);"/>
    <path d="M 2792.782 4218 C 2792.782 4216 2788.769 4200 2783.752 4182 C 2775.724 4155 2776.728 4148 2790.775 4143 C 2799.806 4140 2820.877 4125 2836.931 4111 L 2866.03 4085 L 2860.009 4125 C 2852.986 4165 2826.897 4210 2804.823 4218 C 2797.799 4220 2792.782 4220 2792.782 4218 Z" style="fill: rgb(176, 151, 204);"/>
    <path d="M 2981.42 4193 C 2946.301 4156 2931.25 4116 2946.301 4101 C 2963.359 4084 3082.763 4087 3089.786 4104 C 3100.824 4133 3043.63 4220 3013.529 4220 C 3009.515 4220 2995.467 4208 2981.42 4193 Z" style="fill: rgb(176, 151, 204);"/>
    <path d="M 3196.146 4188 C 3176.078 4155 3157.014 4090 3168.051 4090 C 3171.061 4090 3184.105 4101 3198.153 4115 C 3212.2 4129 3230.261 4140 3239.292 4140 C 3256.35 4140 3258.356 4158 3244.309 4194 C 3231.265 4228 3220.227 4227 3196.146 4188 Z" style="fill: rgb(176, 151, 204);"/>
    <path d="M 2882.084 4203 C 2868.037 4200 2867.033 4195 2881.081 4154 C 2889.108 4129 2897.135 4111 2899.142 4113 C 2901.149 4115 2914.193 4138 2927.237 4163 L 2950.315 4210 L 2924.227 4209 C 2910.179 4208 2891.115 4206 2882.084 4203 Z" style="fill: rgb(176, 151, 204);"/>
    <path d="M 3097.814 4175 C 3111.861 4154 3123.902 4131 3123.902 4124 C 3123.902 4116 3128.919 4110 3133.936 4110 C 3139.956 4110 3143.97 4119 3143.97 4131 C 3143.97 4142 3148.987 4160 3155.007 4172 C 3169.054 4197 3165.041 4200 3113.868 4207 L 3072.729 4213 L 3097.814 4175 Z" style="fill: rgb(176, 151, 204);"/>
    <path d="M 3354.682 4147 C 3347.658 4129 3339.631 4112 3336.621 4108 C 3334.614 4103 3337.624 4100 3342.641 4100 C 3353.679 4100 3379.767 4168 3372.743 4175 C 3370.736 4177 3362.709 4165 3354.682 4147 Z" style="fill: rgb(176, 151, 204);"/>
    <path d="M 2667.358 4135 C 2675.385 4101 2677.392 4097 2690.436 4101 C 2695.453 4103 2690.436 4119 2680.402 4135 L 2660.334 4165 L 2667.358 4135 Z" style="fill: rgb(176, 151, 204);"/>
    <path d="M2571 4104 c-111 -73 -201 -187 -259 -327 -45 -107 -49 -143 -7 -57 69 141 174 263 293 340 41 26 48 35 44 56 -2 13 -7 24 -11 23 -3 0 -30 -16 -60 -35z" style="fill: rgb(176, 151, 204);"/>
    <path d="M 3390.804 4124 C 3380.77 4097 3382.777 4094 3445.991 4050 C 3567.401 3965 3669.747 3841.001 3735.971 3697.001 C 3772.094 3621.001 3773.097 3626.001 3741.992 3716.001 C 3682.792 3892 3565.395 4046 3436.96 4118 C 3401.842 4137 3395.821 4138 3390.804 4124 Z" style="fill: rgb(176, 151, 204);"/>
    <path d="M 2738.599 4093 C 2746.626 4057 2770.707 4033 2805.826 4025 C 2830.911 4018 2832.918 4020 2832.918 4048 C 2832.918 4084 2793.786 4120 2755.657 4120 C 2735.589 4120 2732.579 4117 2738.599 4093 Z" style="fill: rgb(176, 151, 204);"/>
    <path d="M 3227.251 4105 C 3207.183 4091 3186.112 4034 3197.149 4023 C 3200.16 4020 3218.221 4023 3237.285 4029 C 3270.397 4040 3294.479 4073 3294.479 4105 C 3294.479 4125 3255.346 4124 3227.251 4105 Z" style="fill: rgb(176, 151, 204);"/>
    <path d="M 2692.443 4066 C 2692.443 4049 2731.575 4000 2732.579 4017 C 2732.579 4035 2710.504 4080 2700.47 4080 C 2696.456 4080 2692.443 4074 2692.443 4066 Z" style="fill: rgb(176, 151, 204);"/>
    <path d="M 2880.077 4073 C 2866.03 4069 2863.02 4060 2865.026 4037 C 2867.033 4010 2876.064 4001 2918.206 3978 C 3009.515 3929 3013.529 3928 3091.793 3966 C 3153 3995 3162.031 4004 3166.044 4031 C 3170.058 4057 3167.048 4063 3144.973 4071 C 3127.915 4078 3111.861 4078 3095.807 4071 C 3066.708 4057 2946.301 4057 2938.274 4070 C 2932.254 4080 2912.186 4081 2880.077 4073 Z" style="fill: rgb(176, 151, 204);"/>
    <path d="M 3309.529 4049 C 3300.499 4007 3309.529 4002 3328.594 4038 C 3342.641 4066 3341.638 4080 3323.577 4080 C 3319.563 4080 3313.543 4066 3309.529 4049 Z" style="fill: rgb(176, 151, 204);"/>
    <path d="M 2625.216 4040 C 2606.151 4029 2589.093 4009 2585.08 3993 C 2576.049 3957 2576.049 3903 2585.08 3894 C 2595.114 3884 2677.392 3918 2698.463 3941 C 2715.521 3960 2715.521 3962 2692.443 4003 C 2660.334 4062 2660.334 4062 2625.216 4040 Z" style="fill: rgb(176, 151, 204);"/>
    <path d="M 3364.716 4051 C 3364.716 4047 3353.679 4026 3339.631 4006 C 3320.567 3978 3316.553 3965 3324.58 3951 C 3334.614 3931 3381.774 3906 3428.933 3894 L 3458.032 3887 L 3453.015 3945 C 3449.001 3997 3443.984 4007 3413.882 4032 C 3379.767 4061 3364.716 4067 3364.716 4051 Z" style="fill: rgb(176, 151, 204);"/>
    <path d="M 2752.646 3991 C 2752.646 3973 2814.857 3909 2830.911 3911 C 2834.925 3911 2847.969 3924 2860.009 3939 L 2883.087 3968 L 2849.976 3983 C 2832.918 3991 2802.816 4000 2785.758 4003 C 2757.663 4009 2752.646 4006 2752.646 3991 Z" style="fill: rgb(176, 151, 204);"/>
    <path d="M 3230.261 4003 C 3214.207 4000 3191.129 3992 3178.085 3984 L 3155.007 3969 L 3176.078 3935 L 3196.146 3900 L 3240.295 3937 C 3264.377 3958 3284.445 3975 3284.445 3976 C 3284.445 3986 3270.397 4010 3265.38 4009 C 3262.37 4008 3246.316 4005 3230.261 4003 Z" style="fill: rgb(176, 151, 204);"/>
    <path d="M2484 3929 c-96 -101 -147 -185 -189 -310 l-23 -67 29 -87 c43 -128 112 -240 230 -372 61 -69 196 -193 210 -193 18 0 -67 137 -108 176 -24 22 -43 48 -43 57 0 9 -9 26 -20 37 -11 11 -26 40 -32 65 -7 25 -16 45 -21 45 -14 0 -37 68 -37 113 0 24 -5 48 -12 55 -19 19 -21 245 -3 289 8 19 15 48 15 64 0 39 17 79 46 110 18 18 25 35 22 54 -3 26 -5 25 -64 -36z" style="fill: rgb(176, 151, 204);"/>
    <path d="M 3480.106 3960 C 3484.12 3941 3494.154 3921 3501.177 3917 C 3524.255 3904 3545.327 3853.001 3545.327 3812.001 C 3545.327 3791.001 3552.35 3759.001 3560.378 3743.001 C 3579.442 3705.001 3578.439 3454.001 3559.374 3442.001 C 3553.354 3438.001 3546.33 3406.001 3543.32 3371.001 C 3539.306 3321.001 3534.289 3303.001 3517.232 3289.001 C 3505.191 3280.001 3495.157 3263.001 3495.157 3251.001 C 3495.157 3228.001 3465.055 3160.001 3454.018 3160.001 C 3450.004 3160.001 3443.984 3149.001 3440.974 3136.001 C 3437.964 3123.001 3416.892 3096.001 3395.821 3077.001 C 3373.747 3057.001 3345.652 3021.001 3333.611 2998.001 C 3321.57 2974.001 3300.499 2940.001 3287.455 2922.001 L 3262.37 2888.001 L 3295.482 2905.001 C 3343.645 2930.001 3531.279 3121.001 3594.493 3210.001 C 3660.717 3302.001 3730.954 3443.001 3747.009 3514.001 C 3758.046 3563.001 3756.039 3570.001 3725.937 3645.001 C 3671.754 3782.001 3585.462 3909 3506.194 3969 L 3472.079 3995 L 3480.106 3960 Z" style="fill: rgb(176, 151, 204);"/>
    <path d="M 2884.091 3926 C 2859.006 3899 2858.003 3883 2878.071 3860 C 2893.121 3844.001 2896.132 3845.001 2930.247 3879 C 2950.315 3899 2966.369 3917 2965.366 3919 C 2965.366 3921 2951.318 3929 2935.264 3936 C 2908.172 3947 2903.155 3946 2884.091 3926 Z" style="fill: rgb(176, 151, 204);"/>
    <path d="M 3088.783 3933 L 3057.678 3918 L 3097.814 3878 L 3137.949 3838.001 L 3156.01 3860 C 3174.071 3882 3174.071 3884 3157.014 3913 C 3134.939 3950 3126.912 3953 3088.783 3933 Z" style="fill: rgb(176, 151, 204);"/>
    <path d="M 2705.487 3912 C 2682.409 3892 2672.375 3874 2670.368 3850.001 L 2667.358 3815.001 L 2752.646 3785.001 C 2835.928 3756.001 2842.952 3755.001 3023.562 3756.001 C 3199.156 3756.001 3213.204 3757.001 3291.468 3783.001 L 3373.747 3811.001 L 3367.726 3843.001 C 3364.716 3861 3346.655 3890 3328.594 3909 C 3294.479 3942 3294.479 3942 3267.387 3925 C 3252.336 3915 3212.2 3879 3178.085 3844.001 C 3143.97 3809.001 3104.837 3778.001 3089.786 3774.001 C 3075.739 3771.001 3032.593 3770.001 2994.464 3772.001 L 2925.23 3776.001 L 2838.938 3858 C 2790.775 3903 2748.633 3940 2744.619 3940 C 2740.606 3939 2723.548 3927 2705.487 3912 Z" style="fill: rgb(176, 151, 204);"/>
    <path d="M 2960.349 3869 C 2897.135 3817.001 2912.186 3800.001 3021.556 3800.001 C 3118.885 3800.001 3126.912 3809.001 3076.742 3859 C 3054.668 3882 3027.576 3900 3016.539 3900 C 3006.505 3900 2981.42 3886 2960.349 3869 Z" style="fill: rgb(176, 151, 204);"/>
    <path d="M 2531.9 3875 C 2524.876 3867 2516.849 3836.001 2513.839 3809.001 C 2508.822 3760.001 2509.825 3758.001 2530.897 3764.001 C 2541.934 3767.001 2560.998 3772.001 2572.036 3776.001 C 2596.117 3782.001 2642.273 3836.001 2642.273 3857 C 2642.273 3870 2634.246 3871 2603.141 3866 C 2572.036 3861 2560.998 3864 2553.975 3876 C 2545.947 3890 2543.941 3890 2531.9 3875 Z" style="fill: rgb(176, 151, 204);"/>
    <path d="M 3472.079 3876 C 3468.065 3865 3457.028 3863 3430.94 3867 C 3398.831 3872 3394.818 3870 3394.818 3851.001 C 3394.818 3840.001 3398.831 3830.001 3403.848 3830.001 C 3408.865 3830.001 3414.886 3821.001 3417.896 3810.001 C 3422.913 3792.001 3436.96 3783.001 3492.147 3766.001 C 3522.249 3757.001 3531.279 3791.001 3513.218 3844.001 C 3499.171 3886 3481.11 3900 3472.079 3876 Z" style="fill: rgb(176, 151, 204);"/>
    <path d="M 2640.266 3742.001 L 2637.256 3687.001 L 2687.426 3665.001 C 2753.65 3636.001 2821.881 3620.001 2911.182 3611.001 C 2976.403 3605.001 2983.427 3606.001 2983.427 3622.001 C 2983.427 3641.001 3011.522 3660.001 3031.59 3653.001 C 3037.61 3650.001 3043.63 3638.001 3043.63 3624.001 C 3043.63 3601.001 3045.637 3600.001 3106.844 3606.001 C 3188.119 3614.001 3326.587 3646.001 3365.719 3666.001 C 3392.811 3680.001 3395.821 3685.001 3390.804 3712.001 C 3387.794 3729.001 3384.784 3753.001 3384.784 3766.001 L 3384.784 3789.001 L 3341.638 3770.001 C 3192.132 3704.001 2872.05 3705.001 2705.487 3772.001 L 2644.28 3797.001 L 2640.266 3742.001 Z" style="fill: rgb(176, 151, 204);"/>
    <path d="M 2582.07 3750.001 C 2574.042 3745.001 2554.978 3740.001 2539.927 3740.001 C 2500.795 3740.001 2481.73 3715.001 2481.73 3664.001 C 2481.73 3621.001 2482.734 3620.001 2509.825 3626.001 C 2573.039 3641.001 2604.144 3671.001 2617.188 3728.001 C 2624.212 3762.001 2612.171 3770.001 2582.07 3750.001 Z" style="fill: rgb(176, 151, 204);"/>
    <path d="M 3414.886 3737.001 C 3414.886 3724.001 3421.909 3707.001 3429.937 3700.001 C 3437.964 3693.001 3442.981 3684.001 3439.97 3680.001 C 3426.926 3660.001 3530.276 3611.001 3548.337 3629.001 C 3553.354 3634.001 3555.361 3658.001 3551.347 3682.001 C 3545.327 3724.001 3543.32 3726.001 3497.164 3737.001 C 3471.076 3743.001 3441.977 3751.001 3432.947 3755.001 C 3418.899 3761.001 3414.886 3757.001 3414.886 3737.001 Z" style="fill: rgb(176, 151, 204);"/>
    <path d="M 2628.226 3622.001 C 2637.256 3551.001 2636.253 3551.001 2724.551 3511.001 C 2837.935 3459.001 2900.145 3445.001 3023.562 3446.001 C 3140.959 3447.001 3221.231 3464.001 3325.584 3512.001 L 3392.811 3542.001 L 3397.828 3593.001 C 3400.838 3622.001 3401.842 3646.001 3400.838 3647.001 C 3399.835 3648.001 3369.733 3638.001 3333.611 3625.001 C 3235.278 3590.001 3120.892 3577.001 2964.362 3583.001 C 2822.884 3588.001 2725.555 3610.001 2655.317 3650.001 L 2623.209 3669.001 L 2628.226 3622.001 Z" style="fill: rgb(176, 151, 204);"/>
    <path d="M 2567.019 3618.001 C 2550.964 3608.001 2528.89 3600.001 2519.859 3600.001 C 2497.785 3600.001 2481.73 3570.001 2481.73 3528.001 C 2481.73 3473.001 2493.771 3463.001 2535.914 3482.001 C 2585.08 3506.001 2604.144 3539.001 2600.131 3592.001 L 2597.121 3637.001 L 2567.019 3618.001 Z" style="fill: rgb(176, 151, 204);"/>
    <path d="M 3424.92 3600.001 C 3424.92 3584.001 3429.937 3570.001 3434.954 3570.001 C 3440.974 3570.001 3443.984 3558.001 3442.981 3543.001 C 3440.974 3522.001 3446.994 3511.001 3474.086 3493.001 C 3522.249 3461.001 3542.317 3463.001 3547.334 3502.001 C 3554.357 3548.001 3538.303 3600.001 3517.232 3600.001 C 3508.201 3600.001 3487.13 3607.001 3471.076 3615.001 C 3430.94 3636.001 3424.92 3634.001 3424.92 3600.001 Z" style="fill: rgb(176, 151, 204);"/>
    <path d="M 2638.26 3498.001 C 2642.273 3485.001 2648.294 3457.001 2651.304 3435.001 C 2657.324 3398.001 2662.341 3393.001 2720.538 3362.001 C 2818.87 3310.001 2903.155 3289.001 3018.545 3289.001 C 3133.936 3289.001 3207.183 3305.001 3311.536 3354.001 C 3370.736 3382.001 3382.777 3392.001 3377.76 3408.001 C 3375.753 3419.001 3377.76 3445.001 3383.78 3466.001 C 3389.801 3487.001 3392.811 3505.001 3390.804 3507.001 C 3389.801 3509.001 3363.713 3498.001 3334.614 3484.001 C 3270.397 3453.001 3162.031 3425.001 3072.729 3415.001 C 2960.349 3403.001 2773.718 3443.001 2682.409 3499.001 C 2638.26 3526.001 2629.229 3525.001 2638.26 3498.001 Z" style="fill: rgb(176, 151, 204);"/>
    <path d="M 2588.09 3481.001 C 2578.056 3470.001 2559.995 3458.001 2547.954 3454.001 C 2536.917 3450.001 2523.873 3442.001 2519.859 3436.001 C 2509.825 3421.001 2509.825 3348.001 2520.863 3331.001 C 2532.903 3312.001 2566.015 3325.001 2597.121 3361.001 C 2622.205 3392.001 2629.229 3443.001 2613.175 3483.001 C 2607.154 3500.001 2605.148 3500.001 2588.09 3481.001 Z" style="fill: rgb(176, 151, 204);"/>
    <path d="M 3408.865 3454.001 C 3404.852 3429.001 3405.855 3415.001 3414.886 3410.001 C 3421.909 3406.001 3423.916 3397.001 3420.906 3391.001 C 3411.875 3378.001 3470.072 3320.001 3491.144 3320.001 C 3511.211 3320.001 3527.266 3369.001 3520.242 3407.001 C 3516.228 3432.001 3504.188 3444.001 3468.065 3464.001 C 3442.981 3478.001 3420.906 3490.001 3418.899 3490.001 C 3416.892 3490.001 3412.879 3474.001 3408.865 3454.001 Z" style="fill: rgb(176, 151, 204);"/>
    <path d="M 2668.361 3343.001 C 2672.375 3333.001 2677.392 3306.001 2680.402 3282.001 C 2685.419 3229.001 2711.507 3207.001 2801.813 3180.001 C 2937.271 3138.001 3105.841 3138.001 3244.309 3179.001 C 3327.59 3204.001 3350.669 3229.001 3356.689 3298.001 C 3360.702 3339.001 3358.696 3348.001 3349.665 3340.001 C 3342.641 3334.001 3299.495 3316.001 3253.339 3299.001 C 3089.786 3239.001 2894.125 3249.001 2732.579 3326.001 C 2675.385 3353.001 2661.338 3357.001 2668.361 3343.001 Z" style="fill: rgb(176, 151, 204);"/>
    <path d="M 2595.114 3319.001 C 2558.992 3286.001 2552.971 3252.001 2576.049 3212.001 L 2589.093 3188.001 L 2620.199 3220.001 C 2655.317 3254.001 2663.344 3302.001 2640.266 3333.001 C 2628.226 3349.001 2624.212 3347.001 2595.114 3319.001 Z" style="fill: rgb(176, 151, 204);"/>
    <path d="M 3384.784 3316.001 C 3372.743 3279.001 3378.764 3255.001 3407.862 3223.001 C 3443.984 3183.001 3465.055 3198.001 3465.055 3265.001 C 3465.055 3290.001 3458.032 3303.001 3430.94 3324.001 L 3396.825 3350.001 L 3384.784 3316.001 Z" style="fill: rgb(176, 151, 204);"/>
    <path d="M 2638.26 3195.001 C 2616.185 3177.001 2611.168 3168.001 2617.188 3149.001 C 2626.219 3119.001 2661.338 3080.001 2678.395 3080.001 C 2697.46 3080.001 2711.507 3140.001 2700.47 3172.001 C 2685.419 3215.001 2670.368 3221.001 2638.26 3195.001 Z" style="fill: rgb(176, 151, 204);"/>
    <path d="M 3337.624 3186.001 C 3320.567 3148.001 3328.594 3090.001 3351.672 3083.001 C 3369.733 3077.001 3414.886 3129.001 3414.886 3155.001 C 3414.886 3175.001 3377.76 3220.001 3361.706 3220.001 C 3357.692 3220.001 3346.655 3204.001 3337.624 3186.001 Z" style="fill: rgb(176, 151, 204);"/>
    <path d="M 2732.579 3136.001 C 2732.579 3116.001 2731.575 3097.001 2731.575 3093.001 C 2730.572 3088.001 2763.684 3074.001 2803.819 3061.001 C 2867.033 3040.001 2898.138 3036.001 3018.545 3036.001 C 3138.953 3035.001 3170.058 3038.001 3235.278 3058.001 L 3311.536 3082.001 L 3300.499 3122.001 C 3291.468 3155.001 3286.451 3160.001 3269.394 3155.001 C 3099.82 3107.001 2926.233 3110.001 2755.657 3164.001 C 2734.585 3171.001 2732.579 3168.001 2732.579 3136.001 Z" style="fill: rgb(176, 151, 204);"/>
    <path d="M 2702.477 3055.001 C 2702.477 3053.001 2707.494 3039.001 2714.517 3025.001 C 2727.562 2997.001 2800.809 2970.001 2920.213 2949.001 C 3057.678 2925.001 3289.462 2965.001 3313.543 3017.001 C 3331.604 3057.001 3326.587 3059.001 3270.397 3039.001 C 3131.929 2991.001 2939.277 2989.001 2797.799 3034.001 C 2715.521 3060.001 2702.477 3063.001 2702.477 3055.001 Z" style="fill: rgb(176, 151, 204);"/>
    <path d="M 2757.663 2949.001 C 2790.775 2892.001 2819.874 2881.001 2883.087 2904.001 L 2917.203 2917.001 L 2851.982 2933.001 C 2815.86 2942.001 2777.731 2953.001 2767.697 2956.001 C 2753.65 2962.001 2751.643 2960.001 2757.663 2949.001 Z" style="fill: rgb(176, 151, 204);"/>
    <path d="M 3184.105 2932.001 L 3118.885 2917.001 L 3167.048 2901.001 L 3215.21 2886.001 L 3247.319 2918.001 C 3282.438 2954.001 3279.428 2955.001 3184.105 2932.001 Z" style="fill: rgb(176, 151, 204);"/>
    <path d="M4883 4063 c-35 -7 -79 -57 -93 -105 -7 -26 -14 -134 -17 -273 -9 -426 21 -515 174 -515 65 0 109 28 136 88 21 45 22 59 22 362 0 302 -1 317 -22 362 -11 25 -33 54 -48 64 -27 17 -109 27 -152 17z m98 -100 c11 -13 14 -79 14 -333 0 -254 -3 -320 -14 -333 -14 -18 -48 -22 -69 -9 -24 16 -34 141 -30 391 3 216 5 250 21 274 20 31 57 36 78 10z"/>
    <path d="M6175 4057 c-87 -40 -95 -86 -95 -524 l0 -353 55 0 55 0 0 125 0 125 55 0 55 0 0 -125 0 -125 55 0 55 0 0 328 c0 418 -11 496 -74 538 -34 22 -124 28 -161 11z m94 -86 c20 -13 30 -112 30 -298 l1 -153 -56 0 -55 0 3 208 c3 214 10 252 46 252 9 0 23 -4 31 -9z"/>
    <path d="M7643 4064 c-36 -8 -80 -67 -92 -124 -15 -68 -15 -562 0 -632 21 -101 63 -138 156 -138 58 0 105 26 128 70 20 39 35 164 35 298 l0 102 -90 0 -90 0 0 -45 c0 -45 0 -45 35 -45 l35 0 0 -107 c0 -67 -5 -118 -13 -133 -15 -30 -57 -38 -80 -16 -22 23 -30 149 -25 415 3 207 5 232 22 250 22 24 58 27 75 7 6 -7 15 -40 19 -72 l7 -59 50 0 49 0 -3 49 c-4 68 -31 135 -63 159 -27 20 -108 31 -155 21z"/>
    <path d="M4390 3620 l0 -440 55 0 55 0 2 178 3 177 50 -177 50 -178 56 0 56 0 -63 222 c-35 123 -64 229 -64 238 0 8 27 101 60 205 33 105 60 196 60 203 0 9 -14 12 -52 10 l-52 -3 -52 -160 -52 -160 -1 163 -1 162 -55 0 -55 0 0 -440z"/>
    <path d="M5210 3619 l0 -441 129 4 c128 3 130 3 161 33 40 38 60 108 60 210 0 89 -19 168 -49 207 -19 24 -19 27 -3 69 11 30 16 76 17 149 0 174 -36 210 -212 210 l-103 0 0 -441z m207 321 c17 -34 16 -172 -1 -215 -14 -32 -19 -35 -55 -35 l-41 0 0 141 0 140 42 -3 c34 -2 45 -8 55 -28z m12 -359 c38 -38 41 -232 5 -272 -12 -14 -30 -19 -66 -19 l-48 0 0 155 0 155 45 0 c31 0 51 -6 64 -19z"/>
    <path d="M5640 3620 l0 -440 55 0 55 0 0 210 0 210 33 0 c66 0 77 -35 93 -312 l6 -108 54 0 c45 0 54 3 54 18 0 9 -7 91 -15 182 -15 164 -28 234 -44 244 -5 3 1 25 13 48 17 36 21 61 21 158 0 196 -32 230 -217 230 l-108 0 0 -440z m212 328 c16 -29 15 -206 -1 -236 -9 -18 -21 -22 -56 -22 l-45 0 0 140 0 140 45 0 c36 0 47 -4 57 -22z"/>
    <path d="M6760 3620 l0 -440 125 0 125 0 0 55 0 55 -70 0 -70 0 0 155 0 155 60 0 60 0 0 45 0 45 -60 0 -60 0 0 140 0 140 70 0 70 0 0 45 0 45 -125 0 -125 0 0 -440z"/>
    <path d="M7090 3620 l0 -440 55 0 55 0 2 228 3 227 49 -165 c27 -91 57 -193 68 -227 l19 -63 49 0 50 0 0 440 0 440 -55 0 -55 0 -2 -260 -3 -260 -69 260 -69 260 -49 0 -48 0 0 -440z"/>
    <path d="M7957 4054 c-4 -4 -7 -202 -7 -441 l0 -433 60 0 60 0 -2 438 -3 437 -50 3 c-28 2 -54 0 -58 -4z"/>
    <path d="M8177 4054 c-4 -4 -7 -202 -7 -441 l0 -433 60 0 60 0 2 222 3 222 65 -222 65 -222 53 0 52 0 -2 438 -3 437 -55 0 -55 0 -3 -250 -4 -250 -67 250 -67 250 -45 3 c-25 2 -48 0 -52 -4z"/>
    <path d="M8637 4053 c-4 -3 -7 -201 -7 -440 l0 -433 130 0 130 0 0 55 0 55 -70 0 -70 0 0 155 0 155 61 0 60 0 -3 43 -3 42 -57 3 -58 3 0 139 0 140 70 0 70 0 0 45 0 45 -123 0 c-68 0 -127 -3 -130 -7z"/>
  </g>
</svg>