<?xml version="1.0" encoding="utf-8"?>
<svg width="1000px" height="2000px" viewBox="0 0 500 700" xmlns="http://www.w3.org/2000/svg" xmlns:bx="https://boxy-svg.com">
  <defs>
    <style bx:fonts="Aclonica">@import url(https://fonts.googleapis.com/css2?family=Aclonica%3Aital%2Cwght%400%2C400&amp;display=swap);</style>
    <style bx:fonts="Akshar">@import url(https://fonts.googleapis.com/css2?family=Akshar%3Aital%2Cwght%400%2C300%3B0%2C400%3B0%2C500%3B0%2C600%3B0%2C700&amp;display=swap);</style>
  </defs>
  <g transform="matrix(0.45694, 0, 0, 0.507475, -733.73877, 608.969788)" style="">
    <path style="stroke: none; fill: rgb(157, 99, 99);" d="M 1835.766 -1189.479 C 1868.919 -1201.319 1901.329 -1202.35 1935.766 -1196.613 C 1944.845 -1195.1 1957.48 -1195.337 1965.767 -1191.86 L 1925.766 -1190.86 L 1925.766 -1188.86 C 1951.388 -1188.86 1976.276 -1186.695 2001.766 -1184.949 C 2113.53 -1177.296 2227.425 -1160.831 2329.766 -1112.49 C 2358.727 -1098.81 2386.32 -1083.917 2412.767 -1065.74 C 2422.755 -1058.875 2436.875 -1050.729 2442.766 -1039.86 C 2402.344 -1063.971 2351.402 -1073.267 2305.766 -1082.411 C 2287.144 -1086.142 2265.197 -1088.36 2247.766 -1095.86 L 2267.767 -1086.201 L 2303.767 -1071.055 L 2321.766 -1063.86 C 2308.56 -1059.845 2294.328 -1055.64 2282.782 -1047.538 C 2273.39 -1040.949 2266.532 -1031.109 2258.73 -1022.86 C 2244.149 -1007.442 2229.03 -992.831 2212.766 -979.157 C 2161.531 -936.078 2091.734 -899.164 2024.767 -890.142 C 1980.62 -884.196 1937.807 -889.425 1895.766 -904.401 C 1878.731 -910.469 1862.288 -922.226 1844.766 -926.331 C 1805.053 -935.636 1762.828 -931.436 1722.767 -940.284 C 1698.569 -945.629 1678.31 -959.235 1671.06 -983.86 C 1669.284 -989.893 1666.29 -1000.702 1670.084 -1006.542 C 1673.384 -1011.623 1688.685 -1008.213 1693.766 -1007.421 C 1717.692 -1003.692 1741.758 -1002.426 1765.766 -999.574 C 1826.546 -992.356 1888.907 -989.649 1949.767 -997.146 C 1987.719 -1001.822 2024.291 -1016.542 2062.766 -1016.86 L 2062.766 -1015.86 C 2037.099 -1005.188 2011.763 -993.697 1986.766 -981.602 C 1968.153 -972.595 1947.768 -961.691 1926.766 -959.86 L 1926.766 -958.86 C 1960.239 -959.137 1995.785 -977.124 2027.766 -985.849 C 2036.194 -988.149 2044.526 -990.226 2052.766 -993.168 C 2056.359 -994.449 2092.066 -1006.316 2103.766 -1010.076 C 2121.411 -1015.747 2137.798 -1023.807 2153.766 -1033.01 C 2162.624 -1038.114 2191.582 -1064.258 2195.57 -1068.835 C 2207.749 -1082.81 2222.38 -1094.101 2233.767 -1108.86 C 2223.674 -1101.751 2215.915 -1091.372 2206.751 -1083.145 C 2188.237 -1066.527 2166.878 -1052.472 2143.767 -1043.31 C 2103.834 -1027.48 2054.831 -1037.828 2012.766 -1033.69 C 1974.885 -1029.964 1937.587 -1019.806 1899.767 -1015.146 C 1854.758 -1009.601 1805.898 -1009.395 1760.766 -1013.69 C 1745.917 -1015.103 1730.678 -1013.928 1715.766 -1014.949 C 1698.852 -1016.108 1681.725 -1018.86 1664.766 -1018.86 C 1660.628 -1018.86 1655.583 -1019.597 1651.767 -1017.681 C 1644.206 -1013.885 1642.251 -1004.721 1633.77 -1012.88 C 1621.291 -1024.887 1609.959 -1045.977 1613.095 -1063.86 C 1614.622 -1072.568 1621.236 -1079.415 1626.765 -1085.86 C 1637.722 -1098.633 1649.163 -1114.266 1664.766 -1121.856 C 1671.495 -1125.13 1679.527 -1121.167 1686.766 -1122.044 C 1694.878 -1123.028 1701.228 -1128.094 1707.766 -1132.531 C 1735.216 -1151.157 1765.028 -1186.055 1801.766 -1177.86 L 1801.766 -1176.86 L 1784.766 -1165.86 L 1784.766 -1164.86 C 1801.789 -1173.292 1817.666 -1183.016 1835.766 -1189.479 Z M 1898.767 -1126.86 L 1898.767 -1125.86 C 1933.038 -1125.86 1966.101 -1128.863 1999.767 -1135.321 C 2023.108 -1139.798 2047.032 -1147.971 2070.766 -1149.86 C 2066.239 -1144.921 2060.291 -1143.658 2054.936 -1140.05 C 2037.055 -1128.001 2016.425 -1116.195 1995.766 -1109.606 C 1987.643 -1107.015 1978.877 -1107.425 1970.766 -1104.86 C 1980.494 -1097.929 1997.438 -1099.081 2008.767 -1094.551 C 2038.617 -1082.612 2066.953 -1064.444 2098.766 -1057.86 L 2098.766 -1058.86 L 2016.767 -1095.86 C 2022.786 -1103.555 2032.485 -1108.142 2040.19 -1113.96 C 2061.558 -1130.096 2085.275 -1151.8 2112.766 -1155.86 C 2100.587 -1160.971 2078.993 -1154.021 2065.767 -1153.864 C 2026.627 -1153.398 1988.007 -1147.989 1949.767 -1139.435 C 1932.803 -1135.64 1915.865 -1129.766 1898.767 -1126.86 Z M 1732.766 -1102.86 L 1732.766 -1101.86 C 1762.586 -1097.605 1783.671 -1124.207 1808.766 -1133.86 C 1806.329 -1118.276 1824.543 -1102.522 1837.552 -1115.993 C 1847.55 -1126.344 1843.677 -1138.127 1839.767 -1149.86 L 1885.766 -1173.86 C 1876.275 -1179.766 1857.689 -1172.285 1847.767 -1170.145 C 1816.782 -1163.463 1786.131 -1139.275 1760.771 -1121.342 C 1751.393 -1114.712 1743.578 -1107.363 1732.766 -1102.86 Z M 1716.766 -1044.86 L 1716.766 -1045.86 C 1707.24 -1052.589 1699.295 -1072.923 1687.767 -1074.86 C 1701.995 -1089.658 1718.708 -1072.016 1733.766 -1066.965 C 1745.056 -1063.178 1758.733 -1065.332 1769.766 -1068.86 C 1759.871 -1071.227 1750.21 -1066.189 1739.767 -1070.585 C 1721.051 -1078.461 1709.086 -1099.895 1685.766 -1096.416 C 1665.009 -1093.32 1666.293 -1075.372 1677.235 -1061.86 C 1686.799 -1050.048 1702.402 -1046.715 1716.766 -1044.86 Z"/>
    <path style="stroke: none; fill: rgb(157, 99, 99);" d="M 2279.766 -1019.86 L 2279.766 -1018.86 C 2287.307 -1016.636 2296.033 -1019.241 2303.766 -1019.771 C 2318.284 -1020.765 2333.363 -1020.443 2347.766 -1018.571 C 2386.247 -1013.567 2424.978 -993.624 2456.766 -972.262 C 2602.084 -874.608 2653.566 -695.245 2660.806 -529.86 C 2662.126 -499.684 2662.746 -469.03 2660.676 -438.86 C 2658.406 -405.775 2654.196 -372.57 2648.686 -339.86 C 2641.636 -298.026 2632.346 -256.683 2620.766 -215.86 L 2649.766 -215.86 C 2653.236 -215.86 2659.136 -214.75 2662.116 -216.89 C 2665.846 -219.56 2667.146 -227.68 2668.336 -231.86 C 2672.116 -245.107 2675.216 -258.414 2678.186 -271.86 C 2690.546 -327.819 2699.676 -387.488 2699.766 -444.86 C 2699.846 -492.677 2701.156 -540.146 2696.596 -587.86 C 2683.716 -722.58 2634.736 -859.668 2536.752 -955.899 C 2495.999 -995.924 2447.7 -1025.461 2393.766 -1043.939 C 2380.663 -1048.428 2367.328 -1052.099 2353.766 -1054.864 C 2348.417 -1055.954 2342.28 -1058.422 2336.766 -1057.621 C 2328.972 -1056.488 2321.846 -1049.016 2315.766 -1044.564 C 2304.131 -1036.045 2291.988 -1027.527 2279.766 -1019.86 Z"/>
    <path style="stroke: none; fill: rgb(157, 99, 99);" d="M 2287.766 -1005.86 L 2287.766 -1004.86 C 2306.833 -994.279 2323.616 -980.162 2339.301 -965.071 C 2345.029 -959.56 2349.39 -949.976 2356.091 -945.884 C 2361.087 -942.833 2367.41 -945.189 2372.766 -944.382 C 2386.102 -942.372 2403.582 -938.58 2412.766 -927.86 C 2395.031 -934.553 2382.579 -934.924 2364.766 -928.86 C 2377.609 -904.736 2387.096 -880.871 2395.766 -854.86 C 2399.082 -844.911 2400.829 -826.354 2407.494 -818.458 C 2420.025 -803.611 2447.713 -791.074 2466.766 -789.034 C 2476.433 -787.999 2486.027 -790.882 2495.766 -790.39 C 2501.219 -790.114 2506.192 -787.907 2511.766 -787.86 L 2511.766 -785.86 C 2498.932 -785.274 2486.702 -779.466 2473.766 -778.899 C 2454.11 -778.039 2438.142 -784.568 2419.766 -789.86 C 2422.325 -772.536 2431.698 -755.944 2435.868 -738.86 C 2437.467 -732.307 2436.512 -720.305 2440.558 -714.983 C 2445.309 -708.736 2456.162 -705.037 2462.766 -700.946 C 2489.452 -684.411 2521.379 -675.863 2552.766 -675.86 C 2552.766 -730.352 2535.599 -786.146 2514.306 -835.86 C 2505.415 -856.618 2489.96 -877.358 2483.766 -898.86 C 2495.991 -887.638 2504.672 -870.024 2512.964 -855.86 C 2525.594 -834.288 2536.927 -813.333 2545.83 -789.86 C 2605.856 -631.611 2559.606 -456.365 2456.166 -326.86 C 2432.018 -296.627 2405.366 -269.06 2375.596 -244.346 C 2364.345 -235.01 2352.372 -222.58 2338.766 -216.86 L 2338.766 -215.86 L 2599.766 -215.86 C 2604.706 -239.71 2613.246 -263.137 2619.016 -286.86 C 2626.326 -316.886 2630.676 -348.238 2634.486 -378.86 C 2653.506 -531.803 2644.756 -707.723 2556.856 -839.86 C 2508.181 -913.027 2436.677 -983.798 2347.766 -1003.436 C 2328.306 -1007.734 2307.612 -1005.86 2287.766 -1005.86 Z"/>
    <path style="stroke: none; fill: rgb(157, 99, 99);" d="M 2203.766 -945.86 L 2203.766 -944.86 C 2223.446 -939.49 2242.599 -930.675 2262.766 -927.125 C 2287.275 -922.81 2320.185 -928.851 2342.766 -938.86 C 2332.883 -958.701 2306.81 -974.653 2288.766 -986.404 C 2283.943 -989.545 2274.148 -998.919 2267.855 -997.149 C 2260.737 -995.146 2252.382 -982.905 2246.766 -977.985 C 2233.42 -966.291 2218.406 -955.821 2203.766 -945.86 Z"/>
    <path style="stroke: none; fill: rgb(157, 99, 99);" d="M 1650.766 -994.86 C 1630.467 -942.526 1627.244 -887.939 1620.48 -832.86 C 1617.826 -811.253 1615.69 -789.382 1612.327 -767.86 C 1610.171 -754.061 1606.054 -739.836 1605.766 -725.86 C 1612.995 -732.074 1615.398 -744.253 1618.909 -752.86 C 1630.325 -780.85 1636.766 -806.741 1636.766 -836.86 L 1637.766 -836.86 C 1641.643 -808.21 1663.374 -780.937 1688.766 -768.86 C 1684.332 -779.401 1675.984 -788.254 1671.202 -798.86 C 1660.968 -821.559 1658.176 -846.196 1658.781 -870.86 C 1659.25 -890.011 1660.897 -909.005 1664.381 -927.86 C 1665.791 -935.488 1672.238 -945.226 1671.383 -952.86 C 1670.849 -957.635 1666.164 -961.86 1663.781 -965.86 C 1658.568 -974.611 1653.605 -984.591 1652.766 -994.86 L 1650.766 -994.86 Z"/>
    <path style="stroke: none; fill: rgb(157, 99, 99);" d="M 2295.766 -912.86 L 2295.766 -911.86 C 2315.83 -903.617 2336.318 -890.576 2353.48 -877.341 C 2360.745 -871.739 2366.276 -864.136 2373.766 -858.86 L 2356.766 -905.86 L 2348.491 -923.793 L 2333.766 -921.744 L 2295.766 -912.86 Z"/>
    <path style="stroke: none; fill: rgb(157, 99, 99);" d="M 2072.766 -881.86 L 2072.766 -880.86 C 2088.177 -869.909 2106.782 -862.103 2123.766 -853.879 C 2156.708 -837.929 2189.373 -822.727 2226.766 -832.999 C 2249.578 -839.265 2273.195 -851.139 2277.766 -876.86 C 2261.948 -884.243 2245.505 -889.641 2228.766 -894.63 C 2221.746 -896.722 2214.106 -900.84 2206.766 -901.365 C 2193.55 -902.309 2177.768 -897.629 2164.766 -895.284 C 2135.027 -889.923 2102.997 -881.86 2072.766 -881.86 Z"/>
    <path style="stroke: none; fill: rgb(157, 99, 99);" d="M 2293.766 -867.86 C 2292.727 -860.181 2289.073 -853.428 2285.106 -846.86 C 2262.936 -810.145 2221.395 -806.811 2182.766 -809.86 C 2189.581 -796.907 2196.045 -783.63 2207.766 -774.239 C 2236.743 -751.021 2283.014 -758.389 2313.766 -773.436 C 2325.013 -778.94 2335.14 -786.652 2344.763 -794.599 C 2347.985 -797.261 2353.3 -800.57 2354.474 -804.864 C 2356.083 -810.745 2346.103 -819.036 2342.614 -822.899 C 2329.182 -837.773 2313.078 -860.378 2293.766 -867.86 Z"/>
    <path style="stroke: none; fill: rgb(157, 99, 99);" d="M 2363.766 -789.86 C 2332.284 -759.729 2283.897 -731.429 2238.766 -745.86 L 2226.766 -711.86 C 2239.171 -707.778 2250.845 -701.692 2263.766 -698.875 C 2308.14 -689.199 2344.881 -700.501 2382.766 -723.86 C 2378.936 -744.413 2380.214 -774.332 2363.766 -789.86 Z"/>
    <path style="stroke: none; fill: rgb(157, 99, 99);" d="M 2384.766 -704.86 C 2376.091 -696.737 2365.63 -693.153 2354.766 -688.949 C 2325.355 -677.568 2291.513 -676.393 2260.766 -682.17 C 2247.481 -684.666 2234.901 -689.849 2221.766 -692.86 C 2213.131 -666.544 2189.781 -647.03 2175.766 -623.86 C 2224.225 -595.581 2290.06 -599.35 2341.766 -616.505 C 2351.041 -619.582 2360.356 -622.936 2369.766 -625.574 C 2374.679 -626.952 2382.656 -628.327 2386.163 -632.359 C 2389.469 -636.162 2388.001 -646.128 2387.677 -650.86 C 2386.543 -667.413 2389.587 -689.196 2384.766 -704.86 Z"/>
    <path style="stroke: none; fill: rgb(157, 99, 99);" d="M 2443.766 -694.86 C 2445.681 -679.711 2446.36 -662.044 2444.342 -646.86 C 2443.366 -639.517 2438.612 -623.888 2441.523 -617.12 C 2444.439 -610.341 2460.467 -604.016 2466.766 -600.554 C 2491.323 -587.06 2520.054 -572.096 2548.766 -570.86 L 2554.766 -661.86 C 2513.394 -661.865 2480.602 -679.442 2443.766 -694.86 Z"/>
    <path style="stroke: none; fill: rgb(157, 99, 99);" d="M 2100.766 -545.86 C 2113.389 -539.376 2137.003 -527.372 2151.726 -531.179 C 2158.346 -532.89 2162.266 -544.839 2166.382 -549.86 C 2178.522 -564.671 2195.759 -575.234 2206.766 -590.86 L 2173.766 -603.469 L 2160.805 -609.978 L 2145.052 -594.771 L 2114.302 -561.03 L 2100.766 -545.86 Z"/>
    <path style="stroke: none; fill: rgb(157, 99, 99);" d="M 2169.766 -528.86 C 2189.337 -516.841 2208.982 -519.918 2230.766 -521.774 C 2260.084 -524.271 2289.71 -526.572 2318.766 -531.446 C 2331.983 -533.664 2355.189 -534.608 2365.348 -544.359 C 2368.798 -547.671 2370.156 -553.625 2372.19 -557.86 C 2379.732 -573.561 2384.718 -593.402 2384.766 -610.86 C 2361.419 -607.363 2339.289 -593.599 2315.766 -589.17 C 2298.696 -585.956 2280.193 -582.164 2262.766 -582.899 C 2252.365 -583.338 2236.659 -588.739 2226.766 -586.206 C 2220.847 -584.691 2215.629 -577.972 2210.766 -574.436 C 2193.739 -562.059 2176.796 -549.471 2169.766 -528.86 Z"/>
    <path style="stroke: none; fill: rgb(157, 99, 99);" d="M 2436.766 -599.86 L 2424.995 -554.86 L 2413.766 -524.86 C 2438.437 -509.692 2461.613 -494.856 2488.766 -484.204 C 2495.898 -481.406 2509.825 -474.108 2517.541 -476.193 C 2522.951 -477.654 2524.888 -489.349 2526.769 -493.86 C 2534.452 -512.282 2544.348 -535.714 2544.766 -555.86 C 2515.199 -559.6 2486.299 -573.279 2459.766 -586.349 C 2451.862 -590.243 2445.15 -597.039 2436.766 -599.86 Z"/>
    <path style="stroke: none; fill: rgb(157, 99, 99);" d="M 2017.766 -468.86 C 2023.884 -453.067 2045.394 -446.206 2060.766 -444.86 C 2064.668 -444.518 2069.703 -442.883 2073.48 -444.463 C 2086.571 -449.942 2094.338 -474.311 2103.145 -484.821 C 2112.676 -496.195 2127.747 -502.067 2136.766 -513.86 C 2126.568 -515.188 2113.851 -521.319 2104.766 -526.169 C 2100.043 -528.69 2093.315 -533.558 2087.766 -533.419 C 2080.044 -533.227 2070.873 -521.881 2065.77 -516.874 C 2049.93 -501.333 2035.353 -482.26 2017.766 -468.86 Z"/>
    <path style="stroke: none; fill: rgb(157, 99, 99);" d="M 2356.766 -522.86 C 2318.434 -502.657 2268.735 -494.007 2225.766 -496.949 C 2210.957 -497.964 2196.257 -500.036 2181.766 -503.284 C 2176.214 -504.528 2167.263 -508.955 2161.766 -507.835 C 2155.203 -506.499 2148.521 -501.145 2142.766 -497.896 C 2134.963 -493.492 2124.292 -490.363 2118.095 -483.73 C 2111.777 -476.969 2107.848 -466.731 2102.958 -458.86 C 2098.875 -452.287 2092.987 -446.354 2090.766 -438.86 C 2107.351 -430.526 2130.494 -429.111 2148.766 -427.771 C 2186.876 -424.978 2225.894 -423.965 2263.766 -430.106 C 2279.254 -432.618 2302.328 -434.034 2315.673 -442.865 C 2323.271 -447.894 2327.202 -461.124 2331.616 -468.86 C 2338.672 -481.229 2345.12 -494.177 2351.606 -506.86 C 2353.823 -511.194 2358.097 -518.009 2356.766 -522.86 Z"/>
    <path style="stroke: none; fill: rgb(157, 99, 99);" d="M 2405.766 -507.86 C 2398.75 -490.759 2390.587 -474.023 2381.627 -457.86 C 2379.339 -453.733 2371.696 -443.779 2373.184 -439.031 C 2374.889 -433.591 2384.839 -427.666 2389.19 -424.2 C 2406.29 -410.582 2426.008 -398.936 2446.766 -391.863 C 2452.818 -389.801 2466.163 -383.251 2472.302 -386.892 C 2478.228 -390.405 2482 -400.102 2485.342 -405.86 C 2495.034 -422.561 2506.418 -440.153 2511.766 -458.86 C 2485.606 -467.37 2461.352 -477.536 2436.766 -489.829 C 2426.286 -495.069 2416.788 -504.212 2405.766 -507.86 Z"/>
    <path style="stroke: none; fill: rgb(157, 99, 99);" d="M 2001.766 -453.86 C 1984.032 -431.339 1960.079 -411.66 1946.766 -385.86 C 1955.864 -378.835 1966.006 -374.2 1976.766 -370.179 C 1979.953 -368.989 1984.277 -366.307 1987.766 -367.251 C 1998.436 -370.139 2001.176 -382.866 2006.514 -390.86 C 2016.444 -405.728 2032.407 -415.456 2042.766 -429.86 C 2028.607 -433.958 2010.979 -439.957 2003.766 -453.86 L 2001.766 -453.86 Z"/>
    <path style="stroke: none; fill: rgb(157, 99, 99);" d="M 2008.766 -357.86 C 2053.015 -340.698 2102.288 -330.76 2149.766 -332.821 C 2171.385 -333.759 2193.618 -334.988 2213.766 -343.899 C 2234.191 -352.932 2251.234 -368.127 2265.636 -384.86 C 2273.744 -394.281 2283.872 -404.283 2288.766 -415.86 C 2236.587 -403.898 2183.767 -403.725 2130.766 -410.03 C 2115.418 -411.855 2099.606 -416.186 2084.766 -420.439 C 2078.457 -422.247 2069.617 -426.853 2062.936 -425.517 C 2056.279 -424.187 2050.717 -415.334 2045.766 -411.185 C 2027.602 -395.959 2011.972 -382.686 2008.766 -357.86 Z"/>
    <path style="stroke: none; fill: rgb(157, 99, 99);" d="M 2362.766 -422.86 C 2348.433 -398.646 2331.237 -376.07 2312.766 -354.86 L 2312.766 -353.86 C 2333.788 -334.555 2356.676 -316.546 2384.766 -309.231 C 2391.377 -307.51 2401.874 -302.715 2408.727 -304.632 C 2414.906 -306.361 2422.232 -317.107 2426.151 -321.86 C 2439.538 -338.095 2454.483 -354.39 2464.766 -372.86 C 2423.972 -374.612 2394.42 -401.502 2362.766 -422.86 Z"/>
    <path style="stroke: none; fill: rgb(157, 99, 99);" d="M 1968.766 -349.86 L 1968.766 -352.86 C 1959.633 -356.662 1950.466 -361.153 1941.766 -365.86 C 1938.568 -367.59 1933.649 -371.486 1929.809 -370.866 C 1924.629 -370.03 1913.211 -354.281 1909.921 -349.86 C 1896.251 -331.492 1880.623 -315.101 1867.936 -295.86 C 1864.37 -290.453 1855.737 -280.788 1856.539 -273.899 C 1857.137 -268.767 1863.638 -265.387 1867.766 -263.501 C 1878.594 -258.553 1903.476 -253.952 1913.037 -263.087 C 1922.972 -272.58 1934.997 -288.673 1939.164 -301.86 C 1941.372 -308.846 1938.625 -316.029 1942.208 -322.86 C 1947.274 -332.519 1959.919 -343.628 1968.766 -349.86 Z"/>
    <path style="stroke: none; fill: rgb(157, 99, 99);" d="M 1932.766 -251.86 C 1969.045 -246.975 2005.366 -232.76 2042.766 -239.32 C 2075.504 -245.068 2106.773 -268.615 2134.766 -285.411 C 2153.199 -296.47 2176.816 -307.107 2189.766 -324.86 C 2148.312 -321.474 2109.462 -314.984 2067.766 -323.309 C 2049.466 -326.963 2031.614 -330.333 2013.766 -335.885 C 2006.926 -338.013 1995.951 -345.134 1988.766 -343.792 C 1981.033 -342.348 1969.139 -331.36 1962.766 -326.514 C 1960.435 -324.74 1956.364 -322.747 1955.579 -319.676 C 1953.759 -312.553 1958.766 -307.825 1954.595 -299.86 C 1945.812 -283.085 1933.742 -270.992 1932.766 -251.86 Z"/>
    <path style="stroke: none; fill: rgb(157, 99, 99);" d="M 2294.766 -342.86 C 2286.879 -329.313 2270.228 -320.812 2257.766 -311.86 C 2266.181 -282.65 2291.434 -256.786 2320.766 -249.487 C 2327.62 -247.781 2336.68 -244.708 2343.766 -246.139 C 2350.253 -247.45 2356.771 -254.507 2361.766 -258.611 C 2374.71 -269.244 2390.037 -280.048 2399.766 -293.86 C 2374.399 -294.384 2347.549 -302.889 2326.766 -317.43 C 2315.575 -325.26 2306.382 -335.691 2294.766 -342.86 Z"/>
    <path style="stroke: none; fill: rgb(157, 99, 99);" d="M 2239.766 -302.86 C 2229.172 -289.763 2213.668 -278.317 2199.766 -268.86 C 2205.234 -248.869 2223.188 -225.18 2242.766 -217.21 C 2250.083 -214.23 2259.988 -215.86 2267.766 -215.86 C 2277.535 -215.86 2289.223 -214.11 2298.766 -216.25 C 2308.869 -218.53 2323.559 -229.59 2330.766 -236.86 C 2319.289 -241.941 2306.36 -241.756 2294.766 -246.733 C 2271.895 -256.549 2252.165 -280.284 2242.766 -302.86 L 2239.766 -302.86 Z"/>
    <path style="stroke: none; fill: rgb(157, 99, 99);" d="M 2180.766 -260.86 C 2163.889 -246.887 2134.253 -239.82 2128.766 -216.86 L 2156.766 -215.86 L 2210.766 -215.86 L 2194.31 -237.86 L 2180.766 -260.86 Z"/>
    <path style="stroke: none; fill: rgb(157, 99, 99);" d="M 1812.766 -215.86 C 1835.876 -215.86 1880.995 -206.82 1885.766 -239.86 C 1870.635 -241.782 1854.697 -247.856 1844.766 -259.86 L 1832.881 -245.86 L 1812.766 -215.86 Z"/>
    <path style="stroke: none; fill: rgb(157, 99, 99);" d="M 1887.766 -215.86 L 1994.766 -215.86 C 2009.786 -215.86 2026.486 -211.64 2034.766 -226.86 L 2034.766 -228.86 C 2026.356 -230.88 2015.489 -228.43 2006.766 -228.43 C 1986.956 -228.43 1967.292 -230 1947.766 -233.27 C 1938.292 -234.86 1919.713 -243.872 1910.781 -241.166 C 1903.6 -238.99 1891.111 -222.31 1887.766 -215.86 Z"/>
  </g>
  <text style="fill: rgb(159, 77, 77); font-family: Aclonica; font-size: 125px; white-space: pre;" x="0" y="602.438">KOBRA</text>
  <text style="fill: rgb(123, 54, 54); font-family: Akshar; font-size: 50px; white-space: pre;" x="132.53" y="674.567">3D Engine</text>
</svg>