# Blender v3.0.1 OBJ File: ''
# www.blender.org
mtllib debug.mtl
o Cube
v 1.000000 1.751043 -1.000000
v 1.000000 1.751043 1.000000
v -1.000000 1.751043 -1.000000
v -1.000000 1.751043 1.000000
v 0.307205 4.021321 0.307205
v -0.307205 4.021321 0.307205
v 0.307205 4.021321 -0.307205
v -0.307205 4.021321 -0.307205
v 0.307205 8.372654 0.307205
v -0.307205 8.372654 0.307205
v 0.307205 8.372654 -0.307205
v -0.307205 8.372654 -0.307205
vt 0.625000 1.000000
vt 0.625000 0.750000
vt 0.625000 0.750000
vt 0.625000 1.000000
vt 0.625000 0.500000
vt 0.625000 0.250000
vt 0.625000 0.250000
vt 0.625000 0.500000
vt 0.625000 0.250000
vt 0.625000 0.000000
vt 0.625000 0.000000
vt 0.625000 0.500000
vt 0.875000 0.500000
vt 0.875000 0.750000
vt 0.625000 0.750000
vt 0.625000 0.000000
vt 0.625000 1.000000
vn 0.0000 0.2919 0.9565
vn 0.0000 0.0000 -1.0000
vn -0.9565 0.2919 0.0000
vn 0.9565 0.2919 0.0000
vn 0.0000 0.2919 -0.9565
vn 0.0000 1.0000 0.0000
vn 1.0000 0.0000 0.0000
vn -1.0000 0.0000 0.0000
vn 0.0000 0.0000 1.0000
usemtl Material
s off
f 4/1/1 2/2/1 5/3/1 6/4/1
f 7/5/2 8/6/2 12/7/2 11/8/2
f 3/9/3 4/10/3 6/11/3 8/6/3
f 2/2/4 1/12/4 7/5/4 5/3/4
f 1/12/5 3/9/5 8/6/5 7/5/5
f 11/8/6 12/13/6 10/14/6 9/15/6
f 5/3/7 7/5/7 11/8/7 9/15/7
f 8/6/8 6/11/8 10/16/8 12/7/8
f 6/4/9 5/3/9 9/15/9 10/17/9
